<svg width="36" height="38" viewBox="0 0 36 38" fill="none" xmlns="http://www.w3.org/2000/svg">
<circle cx="18" cy="19" r="18" fill="#5700EF"/>
<path d="M9.31481 32V30.1974L23.8503 7.96591H9.2381V5.81818H26.7012V7.62074L12.1529 29.8523H26.829V32H9.31481Z" fill="url(#paint0_radial_357_1088)"/>
<path d="M25.5373 27.1392C24.9109 27.1392 24.3507 27.0265 23.8569 26.8011C23.363 26.5724 22.9719 26.2559 22.6836 25.8516C22.3952 25.4472 22.2428 24.9815 22.2262 24.4545H23.1658C23.1824 24.8258 23.2968 25.1506 23.5089 25.429C23.721 25.7041 24.0027 25.9195 24.354 26.0753C24.7054 26.2277 25.0965 26.304 25.5273 26.304C25.998 26.304 26.4123 26.2161 26.7702 26.0405C27.1315 25.8648 27.4132 25.6245 27.6154 25.3196C27.8209 25.0114 27.9237 24.6634 27.9237 24.2756C27.9237 23.8646 27.8192 23.5017 27.6104 23.1868C27.4016 22.8719 27.1017 22.6267 26.7106 22.451C26.3228 22.2753 25.8588 22.1875 25.3185 22.1875H24.7219V21.3523H25.3185C25.7594 21.3523 26.1488 21.2727 26.4869 21.1136C26.8282 20.9512 27.0967 20.7242 27.2923 20.4325C27.4878 20.1409 27.5856 19.7978 27.5856 19.4034C27.5856 19.0289 27.5011 18.6991 27.332 18.4141C27.163 18.129 26.9244 17.9053 26.6161 17.7429C26.3112 17.5805 25.9549 17.4993 25.5472 17.4993C25.1528 17.4993 24.7915 17.5755 24.4634 17.728C24.1353 17.8804 23.8701 18.0959 23.668 18.3743C23.4691 18.6527 23.363 18.9825 23.3498 19.3636H22.4499C22.4632 18.8333 22.609 18.3677 22.8874 17.9666C23.1692 17.5623 23.542 17.2474 24.006 17.022C24.4734 16.7933 24.9904 16.679 25.5572 16.679C26.1571 16.679 26.6758 16.8016 27.1133 17.0469C27.5508 17.2921 27.8888 17.6186 28.1275 18.0263C28.3694 18.4306 28.4904 18.8764 28.4904 19.3636C28.4904 19.9437 28.333 20.4408 28.0181 20.8551C27.7032 21.2661 27.279 21.5511 26.7454 21.7102V21.7749C27.395 21.9041 27.9054 22.1925 28.2766 22.6399C28.6512 23.084 28.8384 23.6293 28.8384 24.2756C28.8384 24.8191 28.6959 25.308 28.4109 25.7422C28.1258 26.1731 27.7347 26.5144 27.2376 26.7663C26.7437 27.0149 26.177 27.1392 25.5373 27.1392Z" fill="#B7B7B8"/>
<defs>
<radialGradient id="paint0_radial_357_1088" cx="0" cy="0" r="1" gradientUnits="userSpaceOnUse" gradientTransform="translate(18 19) rotate(90) scale(19 12)">
<stop stop-color="#ECECEC"/>
<stop offset="1" stop-color="#666666"/>
</radialGradient>
</defs>
</svg>
